<?xml version="1.0" standalone="no"?>
<!DOCTYPE svg PUBLIC "-//W3C//DTD SVG 20010904//EN"
 "http://www.w3.org/TR/2001/REC-SVG-20010904/DTD/svg10.dtd">
<svg version="1.0" xmlns="http://www.w3.org/2000/svg"
 width="700.000000pt" height="700.000000pt" viewBox="0 0 700.000000 700.000000"
 preserveAspectRatio="xMidYMid meet">
<metadata>
Created by potrace 1.14, written by Peter Selinger 2001-2017
</metadata>
<g transform="translate(0.000000,700.000000) scale(0.100000,-0.100000)"
fill="#000000" stroke="none">
<path d="M3425 6984 c-289 -43 -544 -152 -777 -330 -69 -54 -200 -182 -253
-249 -22 -27 -42 -52 -45 -55 -12 -12 -111 -170 -137 -220 -64 -121 -122 -280
-147 -407 -8 -43 -19 -91 -22 -108 -10 -45 -13 -409 -4 -452 5 -21 16 -76 25
-123 84 -427 385 -842 772 -1064 246 -141 522 -216 798 -216 136 -1 222 7 337
31 422 85 787 332 1032 698 126 189 228 466 253 688 18 158 8 399 -21 528 -1
6 -8 37 -15 70 -30 139 -121 345 -216 491 -183 282 -457 503 -774 625 -76 29
-201 67 -250 75 -14 3 -51 9 -81 15 -85 17 -372 18 -475 3z"/>
<path d="M771 5922 c-54 -9 -105 -96 -96 -163 2 -8 6 -73 10 -144 3 -72 8
-146 10 -165 11 -108 16 -338 8 -343 -19 -12 -34 12 -38 64 -2 30 -6 99 -10
154 -6 99 -11 179 -21 285 -5 62 -34 129 -63 147 -60 37 -127 18 -156 -44 -23
-48 -23 -87 0 -458 14 -218 14 -226 -2 -232 -24 -9 -31 8 -37 107 -13 177 -25
268 -37 288 -42 67 -161 62 -203 -8 -23 -40 -23 -104 -1 -505 12 -222 17 -306
21 -348 2 -27 6 -85 9 -130 8 -125 18 -217 40 -347 13 -74 28 -118 64 -185
l38 -70 1 -180 c0 -173 5 -268 18 -385 70 -621 337 -1048 788 -1261 94 -44
242 -91 328 -103 21 -3 62 -9 90 -13 68 -10 310 -10 415 1 l81 8 1 -419 c0
-230 0 -655 1 -945 l0 -528 1675 0 1675 0 1 38 c0 20 0 181 0 356 -1 176 1
317 3 315 15 -16 118 -359 186 -621 l23 -88 643 0 c509 0 644 3 644 13 0 6 -7
41 -16 77 -9 36 -17 74 -20 86 -24 124 -204 712 -244 799 -5 11 -34 81 -63
155 -85 211 -233 521 -313 657 -11 17 -37 62 -58 100 -220 383 -566 811 -890
1098 -341 303 -768 557 -1165 692 l-44 15 -196 -196 c-108 -107 -199 -199
-203 -202 -4 -4 -26 13 -49 37 -23 24 -109 115 -193 202 -172 181 -153 173
-287 119 -196 -79 -307 -141 -583 -324 -300 -199 -554 -320 -786 -373 -86 -19
-243 -14 -287 9 -150 79 -262 398 -289 823 l-6 91 62 59 c178 167 173 160 267
384 65 153 123 315 167 467 23 77 26 98 17 121 -14 32 -59 61 -96 61 -98 0
-183 -109 -259 -334 -20 -60 -43 -118 -51 -130 -15 -20 -15 -20 -16 9 0 17 -2
37 -4 46 -1 9 -6 83 -9 165 -4 82 -9 176 -11 209 -5 58 -11 156 -20 335 -20
375 -22 394 -39 428 -23 45 -43 55 -103 56 -50 0 -58 -3 -84 -32 -36 -40 -37
-52 -24 -282 4 -80 9 -153 11 -164 2 -10 4 -52 5 -93 1 -54 -2 -77 -12 -84
-19 -12 -31 14 -35 75 -6 110 -16 263 -19 296 -2 19 -6 94 -10 165 -8 158 -12
201 -24 223 -23 44 -81 72 -130 64z m2903 -2742 c3 -25 12 -90 21 -145 8 -55
18 -118 21 -140 2 -22 7 -51 9 -65 10 -57 46 -298 51 -335 2 -22 9 -65 14 -95
5 -30 12 -75 15 -100 3 -25 10 -70 15 -100 5 -30 12 -75 15 -100 3 -25 10 -70
15 -100 5 -30 12 -77 16 -105 3 -27 8 -59 10 -70 2 -10 6 -37 9 -60 3 -22 12
-80 20 -130 8 -49 17 -110 20 -134 3 -23 7 -55 10 -70 2 -14 9 -57 15 -96 5
-38 11 -79 14 -90 4 -23 14 -92 21 -149 5 -40 12 -81 20 -126 2 -14 7 -45 10
-70 3 -25 10 -70 15 -100 11 -59 23 -156 23 -180 1 -8 -60 -98 -134 -198 -74
-101 -159 -218 -189 -260 -30 -41 -59 -77 -65 -78 -5 -2 -97 116 -204 262
l-193 265 7 45 c3 25 8 53 10 62 2 15 13 86 19 137 2 11 6 40 10 65 10 59 11
66 41 268 14 95 27 185 30 200 2 15 7 50 10 77 4 28 8 57 10 65 2 8 7 35 10
60 3 25 11 74 16 110 6 36 12 79 15 95 2 17 6 44 8 60 3 17 14 92 25 167 11
76 23 150 25 165 3 16 8 48 11 73 3 25 15 104 26 175 11 72 22 143 24 158 12
83 17 117 25 167 5 30 12 78 16 105 3 28 7 57 9 65 3 16 11 73 20 133 12 89
16 114 21 140 8 37 11 32 18 -23z"/>
</g>
</svg>
